<svg
  xmlns="http://www.w3.org/2000/svg"
  xmlns:xlink="http://www.w3.org/1999/xlink"
  version="1.1"
  x="0px"
  y="0px"
  viewBox="0 0 64 80"
  enable-background="new 0 0 64 64"
  xml:space="preserve"
>
  <path
    d="M43,39c1.66,0,3,1.34,3,3s-1.34,3-3,3H33c-1.66,0-3-1.34-3-3s1.34-3,3-3H43z"
  />
  <path
    d="M20,17v3h-3c-1.66,0-3,1.34-3,3s1.34,3,3,3h3v3c0,1.66,1.34,3,3,3s3-1.34,3-3v-3h3c1.66,0,3-1.34,3-3s-1.34-3-3-3h-3v-3  c0-1.66-1.34-3-3-3S20,15.34,20,17z M56,12v40c0,2.21-1.79,4-4,4H12c-2.21,0-4-1.79-4-4V12c0-2.21,1.79-4,4-4h40  C54.21,8,56,9.79,56,12z M50,50V14L14,50H50z"
  />
  <text
    x="0"
    y="79"
    fill="#000000"
    font-size="5px"
    font-weight="bold"
    font-family="'Helvetica Neue', Helvetica, Arial-Unicode, Arial, Sans-serif"
  >
    Created by alkhalifi_design
  </text>
  <text
    x="0"
    y="84"
    fill="#000000"
    font-size="5px"
    font-weight="bold"
    font-family="'Helvetica Neue', Helvetica, Arial-Unicode, Arial, Sans-serif"
  >
    from the Noun Project
  </text>
</svg>
