<svg xmlns="http://www.w3.org/2000/svg" viewBox="0 0 32 40" x="0px" y="0px"><defs><style>.cls-1{fill:none;}</style></defs><g><path d="M6.29,8.71a1,1,0,0,1,0-1.42l4-4a1,1,0,1,1,1.42,1.42L9.41,7H19a7,7,0,0,1,7,7,1,1,0,0,1-2,0,5,5,0,0,0-5-5H9.41l2.3,2.29a1,1,0,0,1,0,1.42,1,1,0,0,1-1.42,0ZM21.71,19.29a1,1,0,0,0-1.42,1.42L22.59,23H13a5,5,0,0,1-5-5,1,1,0,0,0-2,0,7,7,0,0,0,7,7h9.59l-2.3,2.29a1,1,0,0,0,0,1.42,1,1,0,0,0,1.42,0l4-4a1,1,0,0,0,0-1.42Z"/><rect class="cls-1" width="32" height="32"/></g><text x="0" y="47" fill="#000000" font-size="5px" font-weight="bold" font-family="'Helvetica Neue', Helvetica, Arial-Unicode, Arial, Sans-serif">Created by Iconzilla.id</text><text x="0" y="52" fill="#000000" font-size="5px" font-weight="bold" font-family="'Helvetica Neue', Helvetica, Arial-Unicode, Arial, Sans-serif">from the Noun Project</text></svg>